<svg xmlns="http://www.w3.org/2000/svg" viewBox="0 0 133.15 21.69"><defs><style>.cls-1{fill:#3d5999;}</style></defs><title>ikea</title><g id="Capa_2" data-name="Capa 2"><g id="Capa_1-2" data-name="Capa 1"><g id="blcGwS.tif"><path class="cls-1" d="M59.13,21.68c-5,0-9.91,0-14.86-.05a3.39,3.39,0,0,1-2-1.12c-2.23-2.3-4.37-4.68-6.55-7l-.81.46v7.59H20.55V.25H34.71V7.59l.52.3c1.85-1.79,3.81-3.47,5.5-5.4A6.92,6.92,0,0,1,46.86,0c3.85.2,7.71.05,12.16.05L48.65,9.9,59.37,21.14Z"/><path class="cls-1" d="M133.15,21.67c-4.73,0-9,0-13.34-.05a2.24,2.24,0,0,1-1.65-1.28c-.43-1.46-1.32-1.72-2.63-1.63a29,29,0,0,1-3.73,0c-1.59-.11-2.87.05-3.26,2a1.64,1.64,0,0,1-1.23.93c-4.14.07-8.28,0-12.71,0,3-7.1,5.87-13.87,8.82-20.6A2.17,2.17,0,0,1,105.1.12c5.78-.07,11.56-.08,17.34,0a2.41,2.41,0,0,1,1.8,1.14C127.21,7.92,130.08,14.61,133.15,21.67Zm-17.52-8.49-2-5.76h-.53l-1.93,5.75Z"/><path class="cls-1" d="M91.14,6H77.82V8.3h13.1v5.16c-3.81,0-7.52,0-11.23,0-.86,0-2.08-.4-2.06,1.17s1.26,1.12,2.1,1.13c3.7,0,7.41,0,11.26,0v5.63H63.59V.22c.73,0,1.49-.13,2.26-.13,7.6,0,15.2.08,22.8-.06,2.11,0,2.73.67,2.51,2.62A33.42,33.42,0,0,0,91.14,6Z"/><path class="cls-1" d="M14.05.25V21.51H0V.25Z"/></g></g></g></svg>